<svg xmlns="http://www.w3.org/2000/svg" style="margin:auto;display:block;" width="700" height="200" preserveAspectRatio="xMidYMid">
<style type="text/css">
  text {
    text-anchor: middle; font-size: 126px; opacity: 0;
  }
</style>
<g style="transform-origin:350px 100px;transform:scale(1)">
<g transform="translate(350,100)">
  <g transform="translate(1,0)"><g class="path" style="transform: translate(0px, -10px); transform-origin: -241.67px 2.2733px; animation: 1s linear -0.416667s infinite normal forwards running wander-v-69c84e30-a8e5-45b9-b0a2-eaf21c3c2386;"><path d="M75.60 14.99L75.60 14.99L11.47 14.99L11.47 14.99Q8.44 14.99 7.06 13.61L7.06 13.61L7.06 13.61Q5.67 12.22 5.67 9.20L5.67 9.20L5.67-72.45L5.67-72.45Q5.67-74.09 6.11-75.22L6.11-75.22L6.11-75.22Q6.55-76.36 7.43-77.11L7.43-77.11L23.69-90.85L23.69-90.85Q24.32-91.35 25.39-91.67L25.39-91.67L25.39-91.67Q26.46-91.98 27.72-91.98L27.72-91.98L47.25-91.98L47.25-91.98Q50.27-91.98 51.66-90.59L51.66-90.59L51.66-90.59Q53.05-89.21 53.05-86.18L53.05-86.18L53.05-34.90L53.30-35.15L69.55-48.89L69.55-48.89Q70.18-49.39 71.25-49.71L71.25-49.71L71.25-49.71Q72.32-50.02 73.58-50.02L73.58-50.02L91.85-50.02L91.85-50.02Q94.88-50.02 96.26-48.64L96.26-48.64L96.26-48.64Q97.65-47.25 97.65-44.23L97.65-44.23L97.65-4.54L97.65-4.54Q97.65-2.90 97.21-1.76L97.21-1.76L97.21-1.76Q96.77-0.63 95.89 0.13L95.89 0.13L79.51 13.73L79.51 13.73Q79.00 14.24 77.93 14.62L77.93 14.62L77.93 14.62Q76.86 14.99 75.60 14.99zM27.72 0L91.85 0L91.85 0Q94.25 0 95.32-1.07L95.32-1.07L95.32-1.07Q96.39-2.14 96.39-4.54L96.39-4.54L96.39-44.23L96.39-44.23Q96.39-46.62 95.32-47.69L95.32-47.69L95.32-47.69Q94.25-48.76 91.85-48.76L91.85-48.76L73.58-48.76L73.58-48.76Q71.19-48.76 70.12-47.69L70.12-47.69L70.12-47.69Q69.05-46.62 69.05-44.23L69.05-44.23L69.05-23.81L51.79-23.81L51.79-86.18L51.79-86.18Q51.79-88.58 50.72-89.65L50.72-89.65L50.72-89.65Q49.64-90.72 47.25-90.72L47.25-90.72L27.72-90.72L27.72-90.72Q25.33-90.72 24.25-89.65L24.25-89.65L24.25-89.65Q23.18-88.58 23.18-86.18L23.18-86.18L23.18-4.54L23.18-4.54Q23.18-2.14 24.25-1.07L24.25-1.07L24.25-1.07Q25.33 0 27.72 0L27.72 0zM83.29-11.34L36.92-11.34L36.92-79.38L38.18-79.38L38.18-12.60L82.03-12.60L82.03-37.42L83.29-37.42L83.29-11.34" fill="#009ef7" stroke="none" stroke-width="none" transform="translate(-293.3300323486328,40.76830139160156)" style="fill: rgb(0, 158, 247);"></path></g><g class="path" style="transform: translate(0px, -10px); transform-origin: -144.335px 2.2733px; animation: 1s linear -0.333333s infinite normal forwards running wander-v-69c84e30-a8e5-45b9-b0a2-eaf21c3c2386;"><path d="M170.10 14.99L170.10 14.99L111.64 14.99L111.64 14.99Q108.61 14.99 107.23 13.61L107.23 13.61L107.23 13.61Q105.84 12.22 105.84 9.20L105.84 9.20L105.84-72.45L105.84-72.45Q105.84-74.09 106.28-75.22L106.28-75.22L106.28-75.22Q106.72-76.36 107.60-77.11L107.60-77.11L123.86-90.85L123.86-90.85Q124.49-91.35 125.56-91.67L125.56-91.67L125.56-91.67Q126.63-91.98 127.89-91.98L127.89-91.98L186.35-91.98L186.35-91.98Q189.38-91.98 190.76-90.59L190.76-90.59L190.76-90.59Q192.15-89.21 192.15-86.18L192.15-86.18L192.15-71.44L192.15-71.44Q192.15-69.80 191.71-68.67L191.71-68.67L191.71-68.67Q191.27-67.54 190.39-66.78L190.39-66.78L179.55-57.83L179.55-57.83Q180.81-57.20 181.38-55.94L181.38-55.94L181.38-55.94Q181.94-54.68 181.94-52.67L181.94-52.67L181.94-39.19L181.94-39.19Q181.94-37.55 181.50-36.41L181.50-36.41L181.50-36.41Q181.06-35.28 180.18-34.52L180.18-34.52L168.97-25.07L186.35-25.07L186.35-25.07Q189.38-25.07 190.76-23.69L190.76-23.69L190.76-23.69Q192.15-22.30 192.15-19.28L192.15-19.28L192.15-4.54L192.15-4.54Q192.15-2.90 191.71-1.76L191.71-1.76L191.71-1.76Q191.27-0.63 190.39 0.13L190.39 0.13L174.01 13.73L174.01 13.73Q173.50 14.24 172.43 14.62L172.43 14.62L172.43 14.62Q171.36 14.99 170.10 14.99zM127.89 0L186.35 0L186.35 0Q188.75 0 189.82-1.07L189.82-1.07L189.82-1.07Q190.89-2.14 190.89-4.54L190.89-4.54L190.89-19.28L190.89-19.28Q190.89-21.67 189.82-22.74L189.82-22.74L189.82-22.74Q188.75-23.81 186.35-23.81L186.35-23.81L151.58-23.81L151.58-34.65L176.15-34.65L176.15-34.65Q178.54-34.65 179.61-35.72L179.61-35.72L179.61-35.72Q180.68-36.79 180.68-39.19L180.68-39.19L180.68-52.67L180.68-52.67Q180.68-55.06 179.61-56.13L179.61-56.13L179.61-56.13Q178.54-57.20 176.15-57.20L176.15-57.20L151.58-57.20L151.58-66.91L186.35-66.91L186.35-66.91Q188.75-66.91 189.82-67.98L189.82-67.98L189.82-67.98Q190.89-69.05 190.89-71.44L190.89-71.44L190.89-86.18L190.89-86.18Q190.89-88.58 189.82-89.65L189.82-89.65L189.82-89.65Q188.75-90.72 186.35-90.72L186.35-90.72L127.89-90.72L127.89-90.72Q125.50-90.72 124.42-89.65L124.42-89.65L124.42-89.65Q123.35-88.58 123.35-86.18L123.35-86.18L123.35-4.54L123.35-4.54Q123.35-2.14 124.42-1.07L124.42-1.07L124.42-1.07Q125.50 0 127.89 0L127.89 0zM138.35-12.60L179.55-12.60L179.55-11.34L137.09-11.34L137.09-79.38L179.55-79.38L179.55-78.12L138.35-78.12L138.35-46.49L169.34-46.49L169.34-45.23L138.35-45.23L138.35-12.60" fill="#009ef7" stroke="none" stroke-width="none" transform="translate(-293.3300323486328,40.76830139160156)" style="fill: rgb(247, 89, 0);"></path></g><g class="path" style="transform: translate(0px, -10px); transform-origin: -49.335px 2.2733px; animation: 1s linear -0.25s infinite normal forwards running wander-v-69c84e30-a8e5-45b9-b0a2-eaf21c3c2386;"><path d="M265.10 14.99L265.10 14.99L206.64 14.99L206.64 14.99Q203.62 14.99 202.23 13.61L202.23 13.61L202.23 13.61Q200.84 12.22 200.84 9.20L200.84 9.20L200.84-72.45L200.84-72.45Q200.84-74.09 201.28-75.22L201.28-75.22L201.28-75.22Q201.73-76.36 202.61-77.11L202.61-77.11L218.86-90.85L218.86-90.85Q219.49-91.35 220.56-91.67L220.56-91.67L220.56-91.67Q221.63-91.98 222.89-91.98L222.89-91.98L281.36-91.98L281.36-91.98Q284.38-91.98 285.77-90.59L285.77-90.59L285.77-90.59Q287.15-89.21 287.15-86.18L287.15-86.18L287.15-71.44L287.15-71.44Q287.15-69.80 286.71-68.67L286.71-68.67L286.71-68.67Q286.27-67.54 285.39-66.78L285.39-66.78L274.55-57.83L274.55-57.83Q275.81-57.20 276.38-55.94L276.38-55.94L276.38-55.94Q276.95-54.68 276.95-52.67L276.95-52.67L276.95-39.19L276.95-39.19Q276.95-37.55 276.51-36.41L276.51-36.41L276.51-36.41Q276.07-35.28 275.18-34.52L275.18-34.52L263.97-25.07L281.36-25.07L281.36-25.07Q284.38-25.07 285.77-23.69L285.77-23.69L285.77-23.69Q287.15-22.30 287.15-19.28L287.15-19.28L287.15-4.54L287.15-4.54Q287.15-2.90 286.71-1.76L286.71-1.76L286.71-1.76Q286.27-0.63 285.39 0.13L285.39 0.13L269.01 13.73L269.01 13.73Q268.51 14.24 267.44 14.62L267.44 14.62L267.44 14.62Q266.36 14.99 265.10 14.99zM222.89 0L281.36 0L281.36 0Q283.75 0 284.82-1.07L284.82-1.07L284.82-1.07Q285.89-2.14 285.89-4.54L285.89-4.54L285.89-19.28L285.89-19.28Q285.89-21.67 284.82-22.74L284.82-22.74L284.82-22.74Q283.75-23.81 281.36-23.81L281.36-23.81L246.58-23.81L246.58-34.65L271.15-34.65L271.15-34.65Q273.55-34.65 274.62-35.72L274.62-35.72L274.62-35.72Q275.69-36.79 275.69-39.19L275.69-39.19L275.69-52.67L275.69-52.67Q275.69-55.06 274.62-56.13L274.62-56.13L274.62-56.13Q273.55-57.20 271.15-57.20L271.15-57.20L246.58-57.20L246.58-66.91L281.36-66.91L281.36-66.91Q283.75-66.91 284.82-67.98L284.82-67.98L284.82-67.98Q285.89-69.05 285.89-71.44L285.89-71.44L285.89-86.18L285.89-86.18Q285.89-88.58 284.82-89.65L284.82-89.65L284.82-89.65Q283.75-90.72 281.36-90.72L281.36-90.72L222.89-90.72L222.89-90.72Q220.50-90.72 219.43-89.65L219.43-89.65L219.43-89.65Q218.36-88.58 218.36-86.18L218.36-86.18L218.36-4.54L218.36-4.54Q218.36-2.14 219.43-1.07L219.43-1.07L219.43-1.07Q220.50 0 222.89 0L222.89 0zM233.35-12.60L274.55-12.60L274.55-11.34L232.09-11.34L232.09-79.38L274.55-79.38L274.55-78.12L233.35-78.12L233.35-46.49L264.35-46.49L264.35-45.23L233.35-45.23L233.35-12.60" fill="#009ef7" stroke="none" stroke-width="none" transform="translate(-293.3300323486328,40.76830139160156)" style="fill: rgb(0, 158, 247);"></path></g><g class="path" style="transform: translate(0px, -10px); transform-origin: 45.105px 3.2183px; animation: 1s linear -0.166667s infinite normal forwards running wander-v-69c84e30-a8e5-45b9-b0a2-eaf21c3c2386;"><path d="M330.12 16.88L330.12 16.88L330.12 16.88Q318.65 16.88 311.28 14.30L311.28 14.30L311.28 14.30Q303.91 11.72 299.69 7.43L299.69 7.43L299.69 7.43Q295.47 3.15 293.89-2.39L293.89-2.39L293.89-2.39Q292.32-7.94 292.32-13.86L292.32-13.86L292.32-30.49L292.32-30.49Q292.32-32.13 292.76-33.33L292.76-33.33L292.76-33.33Q293.20-34.52 293.96-35.15L293.96-35.15L310.34-48.89L310.34-48.89Q310.97-49.39 311.98-49.71L311.98-49.71L311.98-49.71Q312.98-50.02 314.37-50.02L314.37-50.02L332.64-50.02L332.64-50.02Q334.03-50.02 335.10-49.71L335.10-49.71L335.10-49.71Q336.17-49.39 336.92-48.76L336.92-48.76L336.92-72.45L336.92-72.45Q336.92-74.09 337.37-75.22L337.37-75.22L337.37-75.22Q337.81-76.36 338.69-77.11L338.69-77.11L354.94-90.85L354.94-90.85Q355.57-91.35 356.64-91.67L356.64-91.67L356.64-91.67Q357.71-91.98 358.97-91.98L358.97-91.98L378.76-91.98L378.76-91.98Q381.78-91.98 383.17-90.59L383.17-90.59L383.17-90.59Q384.55-89.21 384.55-86.18L384.55-86.18L384.55-23.81L384.55-23.81Q384.55-17.89 382.85-12.92L382.85-12.92L382.85-12.92Q381.15-7.94 376.87-4.41L376.87-4.41L360.61 9.32L360.61 9.32Q356.33 12.85 349.02 14.87L349.02 14.87L349.02 14.87Q341.71 16.88 330.12 16.88zM383.29-23.81L383.29-23.81L383.29-86.18L383.29-86.18Q383.29-88.58 382.22-89.65L382.22-89.65L382.22-89.65Q381.15-90.72 378.76-90.72L378.76-90.72L358.97-90.72L358.97-90.72Q356.58-90.72 355.51-89.65L355.51-89.65L355.51-89.65Q354.44-88.58 354.44-86.18L354.44-86.18L354.44-28.85L354.44-28.85Q354.44-26.33 352.99-24.63L352.99-24.63L352.99-24.63Q351.54-22.93 346.12-22.93L346.12-22.93L346.12-22.93Q340.33-22.93 338.75-24.63L338.75-24.63L338.75-24.63Q337.18-26.33 337.18-28.85L337.18-28.85L337.18-44.23L337.18-44.23Q337.18-46.62 336.11-47.69L336.11-47.69L336.11-47.69Q335.03-48.76 332.64-48.76L332.64-48.76L314.37-48.76L314.37-48.76Q311.98-48.76 310.90-47.69L310.90-47.69L310.90-47.69Q309.83-46.62 309.83-44.23L309.83-44.23L309.83-23.81L309.83-23.81Q309.83-18.02 311.41-13.29L311.41-13.29L311.41-13.29Q312.98-8.57 317.08-5.23L317.08-5.23L317.08-5.23Q321.17-1.89 328.29 0L328.29 0L328.29 0Q335.41 1.89 346.37 1.89L346.37 1.89L346.37 1.89Q357.46 1.89 364.64 0L364.64 0L364.64 0Q371.83-1.89 375.92-5.23L375.92-5.23L375.92-5.23Q380.02-8.57 381.65-13.29L381.65-13.29L381.65-13.29Q383.29-18.02 383.29-23.81zM368.17-26.84L368.17-79.38L369.43-79.38L369.43-26.84L369.43-26.84Q369.43-19.40 364.71-14.62L364.71-14.62L364.71-14.62Q359.98-9.83 346.63-9.83L346.63-9.83L346.63-9.83Q339.57-9.83 334.97-11.09L334.97-11.09L334.97-11.09Q330.37-12.35 327.73-14.55L327.73-14.55L327.73-14.55Q325.08-16.76 324.01-19.91L324.01-19.91L324.01-19.91Q322.94-23.06 322.94-26.84L322.94-26.84L322.94-36.79L324.20-36.79L324.20-26.84L324.20-26.84Q324.20-19.66 328.92-15.37L328.92-15.37L328.92-15.37Q333.65-11.09 346.63-11.09L346.63-11.09L346.63-11.09Q359.10-11.09 363.64-15.44L363.64-15.44L363.64-15.44Q368.17-19.78 368.17-26.84L368.17-26.84" fill="#009ef7" stroke="none" stroke-width="none" transform="translate(-293.3300323486328,40.76830139160156)" style="fill: rgb(247, 89, 0);"></path></g><g class="path" style="transform: translate(0px, -10px); transform-origin: 140.55px 2.2733px; animation: 1s linear -0.0833333s infinite normal forwards running wander-v-69c84e30-a8e5-45b9-b0a2-eaf21c3c2386;"><path d="M452.59 14.99L452.59 14.99L398.92 14.99L398.92 14.99Q395.89 14.99 394.51 13.61L394.51 13.61L394.51 13.61Q393.12 12.22 393.12 9.20L393.12 9.20L393.12-5.80L393.12-5.80Q393.12-7.43 393.56-8.57L393.56-8.57L393.56-8.57Q394.00-9.70 394.88-10.46L394.88-10.46L410.13-23.31L410.13-51.41L398.92-51.41L398.92-51.41Q395.89-51.41 394.51-52.79L394.51-52.79L394.51-52.79Q393.12-54.18 393.12-57.20L393.12-57.20L393.12-72.45L393.12-72.45Q393.12-74.09 393.56-75.22L393.56-75.22L393.56-75.22Q394.00-76.36 394.88-77.11L394.88-77.11L411.14-90.85L411.14-90.85Q411.77-91.35 412.84-91.67L412.84-91.67L412.84-91.67Q413.91-91.98 415.17-91.98L415.17-91.98L468.85-91.98L468.85-91.98Q471.87-91.98 473.26-90.59L473.26-90.59L473.26-90.59Q474.64-89.21 474.64-86.18L474.64-86.18L474.64-70.94L474.64-70.94Q474.64-69.30 474.20-68.17L474.20-68.17L474.20-68.17Q473.76-67.03 472.88-66.28L472.88-66.28L457.88-53.68L457.88-25.33L468.85-25.33L468.85-25.33Q471.87-25.33 473.26-23.94L473.26-23.94L473.26-23.94Q474.64-22.55 474.64-19.53L474.64-19.53L474.64-4.54L474.64-4.54Q474.64-2.90 474.20-1.76L474.20-1.76L474.20-1.76Q473.76-0.63 472.88 0.13L472.88 0.13L456.50 13.73L456.50 13.73Q455.99 14.24 454.92 14.62L454.92 14.62L454.92 14.62Q453.85 14.99 452.59 14.99zM415.17 0L415.17 0L468.85 0L468.85 0Q471.24 0 472.31-1.07L472.31-1.07L472.31-1.07Q473.38-2.14 473.38-4.54L473.38-4.54L473.38-19.53L473.38-19.53Q473.38-21.92 472.31-23.00L472.31-23.00L472.31-23.00Q471.24-24.07 468.85-24.07L468.85-24.07L456.62-24.07L456.62-66.40L468.85-66.40L468.85-66.40Q471.24-66.40 472.31-67.47L472.31-67.47L472.31-67.47Q473.38-68.54 473.38-70.94L473.38-70.94L473.38-86.18L473.38-86.18Q473.38-88.58 472.31-89.65L472.31-89.65L472.31-89.65Q471.24-90.72 468.85-90.72L468.85-90.72L415.17-90.72L415.17-90.72Q412.78-90.72 411.70-89.65L411.70-89.65L411.70-89.65Q410.63-88.58 410.63-86.18L410.63-86.18L410.63-70.94L410.63-70.94Q410.63-68.54 411.70-67.47L411.70-67.47L411.70-67.47Q412.78-66.40 415.17-66.40L415.17-66.40L427.64-66.40L427.64-24.07L415.17-24.07L415.17-24.07Q412.78-24.07 411.70-23.00L411.70-23.00L411.70-23.00Q410.63-21.92 410.63-19.53L410.63-19.53L410.63-4.54L410.63-4.54Q410.63-2.14 411.70-1.07L411.70-1.07L411.70-1.07Q412.78 0 415.17 0zM462.04-12.60L462.04-11.34L421.97-11.34L421.97-12.60L441.50-12.60L441.50-78.12L421.97-78.12L421.97-79.38L462.04-79.38L462.04-78.12L442.76-78.12L442.76-12.60L462.04-12.60" fill="#009ef7" stroke="none" stroke-width="none" transform="translate(-293.3300323486328,40.76830139160156)" style="fill: rgb(0, 158, 247);"></path></g><g class="path" style="transform: translate(0px, -10px); transform-origin: 244.82px 2.2733px; animation: 1s linear 0s infinite normal forwards running wander-v-69c84e30-a8e5-45b9-b0a2-eaf21c3c2386;"><path d="M545.83-48.51L545.83-48.51L545.83-48.51Q548.10-48.51 549.11-49.52L549.11-49.52L549.11-49.52Q550.12-50.53 552.26-53.80L552.26-53.80L567.63-77.24L567.63-77.24Q568.39-78.50 569.33-78.94L569.33-78.94L569.33-78.94Q570.28-79.38 571.28-79.38L571.28-79.38L573.43-79.38L573.43-79.38Q575.19-79.38 576.01-78.44L576.01-78.44L576.01-78.44Q576.83-77.49 576.83-75.47L576.83-75.47L576.83-11.34L575.57-11.34L575.57-75.47L575.57-75.47Q575.57-76.48 575.13-77.30L575.13-77.30L575.13-77.30Q574.69-78.12 573.43-78.12L573.43-78.12L571.54-78.12L571.54-78.12Q570.65-78.12 570.02-77.87L570.02-77.87L570.02-77.87Q569.39-77.62 568.64-76.36L568.64-76.36L553.27-53.17L553.27-53.17Q551.00-49.77 549.80-48.51L549.80-48.51L549.80-48.51Q548.60-47.25 545.83-47.25L545.83-47.25L545.83-47.25Q543.06-47.25 541.86-48.51L541.86-48.51L541.86-48.51Q540.67-49.77 538.40-53.17L538.40-53.17L523.03-76.36L523.03-76.36Q522.27-77.62 521.58-77.87L521.58-77.87L521.58-77.87Q520.88-78.12 520.00-78.12L520.00-78.12L518.11-78.12L518.11-78.12Q516.85-78.12 516.47-77.30L516.47-77.30L516.47-77.30Q516.10-76.48 516.10-75.47L516.10-75.47L516.10-11.34L514.84-11.34L514.84-75.47L514.84-75.47Q514.84-77.49 515.65-78.44L515.65-78.44L515.65-78.44Q516.47-79.38 518.11-79.38L518.11-79.38L520.25-79.38L520.25-79.38Q521.26-79.38 522.27-78.94L522.27-78.94L522.27-78.94Q523.28-78.50 524.03-77.24L524.03-77.24L539.41-53.80L539.41-53.80Q541.55-50.53 542.56-49.52L542.56-49.52L542.56-49.52Q543.56-48.51 545.83-48.51zM506.02 0L524.79 0L524.79 0Q527.18 0 528.25-1.07L528.25-1.07L528.25-1.07Q529.33-2.14 529.33-4.54L529.33-4.54L529.33-48.89L536.76-35.15L536.76-35.15Q537.89-33.01 539.47-32.07L539.47-32.07L539.47-32.07Q541.04-31.12 543.44-31.12L543.44-31.12L548.48-31.12L548.48-31.12Q550.87-31.12 552.45-32.07L552.45-32.07L552.45-32.07Q554.02-33.01 555.16-35.15L555.16-35.15L562.59-48.89L562.59-4.54L562.59-4.54Q562.59-2.14 563.66-1.07L563.66-1.07L563.66-1.07Q564.73 0 567.13 0L567.13 0L586.53 0L586.53 0Q588.92 0 590.00-1.07L590.00-1.07L590.00-1.07Q591.07-2.14 591.07-4.54L591.07-4.54L591.07-86.18L591.07-86.18Q591.07-88.58 590.00-89.65L590.00-89.65L590.00-89.65Q588.92-90.72 586.53-90.72L586.53-90.72L566.12-90.72L566.12-90.72Q564.10-90.72 562.78-89.84L562.78-89.84L562.78-89.84Q561.46-88.96 560.32-86.94L560.32-86.94L549.11-66.40L549.11-66.40Q548.48-65.27 548.04-64.76L548.04-64.76L548.04-64.76Q547.60-64.26 546.84-64.26L546.84-64.26L545.71-64.26L545.71-64.26Q544.95-64.26 544.51-64.76L544.51-64.76L544.51-64.76Q544.07-65.27 543.44-66.40L543.44-66.40L532.10-86.94L532.10-86.94Q530.96-88.96 529.64-89.84L529.64-89.84L529.64-89.84Q528.32-90.72 526.30-90.72L526.30-90.72L506.02-90.72L506.02-90.72Q503.62-90.72 502.55-89.65L502.55-89.65L502.55-89.65Q501.48-88.58 501.48-86.18L501.48-86.18L501.48-4.54L501.48-4.54Q501.48-2.14 502.55-1.07L502.55-1.07L502.55-1.07Q503.62 0 506.02 0L506.02 0zM528.82 0.13L528.82 0.13L512.44 13.73L512.44 13.73Q511.94 14.24 510.87 14.62L510.87 14.62L510.87 14.62Q509.80 14.99 508.54 14.99L508.54 14.99L489.76 14.99L489.76 14.99Q486.74 14.99 485.35 13.61L485.35 13.61L485.35 13.61Q483.97 12.22 483.97 9.20L483.97 9.20L483.97-72.45L483.97-72.45Q483.97-74.09 484.41-75.22L484.41-75.22L484.41-75.22Q484.85-76.36 485.73-77.11L485.73-77.11L501.98-90.85L501.98-90.85Q502.61-91.35 503.69-91.67L503.69-91.67L503.69-91.67Q504.76-91.98 506.02-91.98L506.02-91.98L526.30-91.98L526.30-91.98Q528.70-91.98 530.27-90.97L530.27-90.97L530.27-90.97Q531.85-89.96 533.23-87.57L533.23-87.57L541.80-71.82L542.93-73.84L542.93-73.84Q543.44-74.72 544.00-75.54L544.00-75.54L544.00-75.54Q544.57-76.36 545.20-76.86L545.20-76.86L561.46-90.47L561.46-90.47Q562.46-91.22 563.53-91.60L563.53-91.60L563.53-91.60Q564.61-91.98 566.12-91.98L566.12-91.98L586.53-91.98L586.53-91.98Q589.55-91.98 590.94-90.59L590.94-90.59L590.94-90.59Q592.33-89.21 592.33-86.18L592.33-86.18L592.33-4.54L592.33-4.54Q592.33-2.90 591.88-1.76L591.88-1.76L591.88-1.76Q591.44-0.63 590.56 0.13L590.56 0.13L574.18 13.73L574.18 13.73Q573.68 14.24 572.61 14.62L572.61 14.62L572.61 14.62Q571.54 14.99 570.28 14.99L570.28 14.99L550.87 14.99L550.87 14.99Q547.72 14.99 546.40 13.61L546.40 13.61L546.40 13.61Q545.08 12.22 545.08 9.20L545.08 9.20L545.08-24.07L537.64-17.89L537.64-17.89Q536.63-17.01 535.31-16.57L535.31-16.57L535.31-16.57Q533.99-16.13 532.22-16.13L532.22-16.13L530.59-16.13L530.59-4.54L530.59-4.54Q530.59-2.90 530.14-1.76L530.14-1.76L530.14-1.76Q529.70-0.63 528.82 0.13" fill="#009ef7" stroke="none" stroke-width="none" transform="translate(-293.3300323486328,40.76830139160156)" style="fill: rgb(247, 89, 0);"></path></g></g>
</g>
</g>
<style id="wander-v-69c84e30-a8e5-45b9-b0a2-eaf21c3c2386" data-anikit="">@keyframes wander-v-69c84e30-a8e5-45b9-b0a2-eaf21c3c2386
{
  0% {
    animation-timing-function: cubic-bezier(0.7806,0.0715,0.8998,0.731);
    transform: translate(0,-10px);
  }
  17.5% {
    animation-timing-function: cubic-bezier(0.484,0.3308,0.6853,0.6667);
    transform: translate(0,-6.18px);
  }
  27.6% {
    animation-timing-function: cubic-bezier(0.2459,0.3343,0.4923,0.6717);
    transform: translate(0,2.48px);
  }
  35.1% {
    animation-timing-function: cubic-bezier(0.1317,0.3401,0.311,0.9176);
    transform: translate(0,7.49px);
  }
  50.1% {
    animation-timing-function: cubic-bezier(0.7773,0.0708,0.9008,0.735);
    transform: translate(0,10px);
  }
  67.6% {
    animation-timing-function: cubic-bezier(0.4888,0.331,0.6153,0.6674);
    transform: translate(0,6.16px);
  }
  80% {
    animation-timing-function: cubic-bezier(0.2539,0.3274,0.5671,0.676);
    transform: translate(0,-4.57px);
  }
  85% {
    animation-timing-function: cubic-bezier(0.1302,0.3349,0.3113,0.9183);
    transform: translate(0,-7.47px);
  }
  100% {
    transform: translate(0,-10px);
  }
}</style>
</svg>